<?xml version="1.0" encoding="UTF-8"?>
<svg version="1.1" xmlns="http://www.w3.org/2000/svg" width="96" height="96">
<path d="M0 0 C2.85672576 0.60141595 3.61457874 1.19905503 5.375 3.5 C6.93885366 11.355637 5.05855211 16.99800859 0.96484375 23.625 C-1.3263069 27.768211 -2.45547904 32.0958185 -3.66796875 36.65234375 C-4.62634681 39.50400745 -5.79871063 41.1539953 -7.625 43.5 C-8.39467199 45.57558676 -8.39467199 45.57558676 -8.9375 47.75 C-10.49931759 52.81331187 -13.24194366 56.48193632 -16.625 60.5 C-16.295 61.16 -15.965 61.82 -15.625 62.5 C-21.51533943 72.46344648 -21.51533943 72.46344648 -27.625 74.5 C-28.615 74.5 -29.605 74.5 -30.625 74.5 C-30.295 75.82 -29.965 77.14 -29.625 78.5 C-31.275 77.51 -32.925 76.52 -34.625 75.5 C-34.8725 76.7375 -35.12 77.975 -35.375 79.25 C-36.67318352 85.14826858 -38.63939968 90.80344763 -40.625 96.5 C-41.285 96.5 -41.945 96.5 -42.625 96.5 C-42.02921223 91.23378394 -40.81191204 86.55591981 -39.0625 81.5625 C-38.82853516 80.87865234 -38.59457031 80.19480469 -38.35351562 79.49023438 C-37.78288171 77.82491499 -37.20472902 76.16217507 -36.625 74.5 C-39.1 74.995 -39.1 74.995 -41.625 75.5 C-41.625 73.5 -41.625 73.5 -39.625 71.5 C-39.955 70.84 -40.285 70.18 -40.625 69.5 C-39.635 69.5 -38.645 69.5 -37.625 69.5 C-38.285 66.53 -38.945 63.56 -39.625 60.5 C-38.635 61.16 -37.645 61.82 -36.625 62.5 C-36.31369141 61.15421875 -36.31369141 61.15421875 -35.99609375 59.78125 C-30.96941922 39.42216653 -21.44546952 21.3346635 -7.625 5.5 C-7.15320312 4.93410156 -6.68140625 4.36820312 -6.1953125 3.78515625 C-4.20723082 1.55628207 -2.96655365 0.56505784 0 0 Z " fill="#D16351" transform="translate(66.625,-0.5)"/>
<path d="M0 0 C0.99 0.33 1.98 0.66 3 1 C1.02 6.94 -0.96 12.88 -3 19 C-3.66 19 -4.32 19 -5 19 C-4.39297368 12.3227105 -2.22368606 6.29872004 0 0 Z " fill="#9D2AA7" transform="translate(29,77)"/>
<path d="M0 0 C0.99 0.33 1.98 0.66 3 1 C2.01 3.97 1.02 6.94 0 10 C-0.66 9.67 -1.32 9.34 -2 9 C-1.34 6.03 -0.68 3.06 0 0 Z " fill="#A4339D" transform="translate(29,77)"/>
</svg>
